<svg width="137" height="50" viewBox="0 0 137 50" fill="none" xmlns="http://www.w3.org/2000/svg">
<path d="M105.985 21.9531H101.801V25.3905H105.985C106.443 25.3905 106.826 25.2503 107.078 24.9701C107.349 24.6712 107.545 24.008 107.545 23.569C107.545 23.13 107.377 22.691 107.106 22.3921C106.798 22.0652 106.396 21.9531 105.985 21.9531Z" fill="#00723C"/>
<path d="M88.9401 23.4766L87.1094 28.315H90.8923L89.0615 23.4766H88.9401Z" fill="#00723C"/>
<path d="M40.3265 21.9531H36.0859V25.3905H40.3265C41.2045 25.3905 41.9051 24.5872 41.9051 23.5504C41.9051 23.13 41.7556 22.7191 41.5034 22.4202C41.1578 22.0185 40.7188 21.9531 40.3265 21.9531Z" fill="#00723C"/>
<path d="M24.0932 20.4688H19.2734V24.4759H24.0932C24.6256 24.4759 25.0646 24.3171 25.3541 23.9901C25.6717 23.6352 25.8865 22.888 25.8865 22.3649C25.8865 21.8512 25.6904 21.3374 25.3821 20.9825C25.0365 20.5995 24.5789 20.4688 24.0932 20.4688Z" fill="#00723C"/>
<path d="M55.0772 21.5977C52.7981 21.5977 51.0234 23.6806 51.0234 26.1839C51.0234 28.7338 52.7888 30.8635 55.0772 30.8635C57.3844 30.8635 59.1964 28.7338 59.1964 26.1839C59.1964 23.6899 57.375 21.5977 55.0772 21.5977Z" fill="#00723C"/>
<path d="M113.992 0H112.703H65.7762V11.1153H64.2444V2.39118H22.6415C10.1345 2.39118 0 12.5537 0 25.0981C0 37.6331 10.1345 47.805 22.6415 47.805H64.2444V39.5106H65.7762V50H112.703C125.733 50 136.307 38.1655 136.307 25.0981C136.307 12.0213 127.032 0 113.992 0ZM28.5634 26.5645C27.5266 27.6761 26.0508 28.3299 23.8464 28.3299H19.2696V34.3265H15.0383V16.6262H23.8464C26.0975 16.6262 27.7134 17.3267 28.8063 18.6624C29.6282 19.6619 30.114 20.9415 30.114 22.38C30.114 23.9118 29.5348 25.5371 28.5634 26.5645ZM42.0512 33.7755L39.3891 28.6755H36.0826V33.7755H32.3464V18.6624H40.1084C42.2193 18.6624 43.5457 19.335 44.4424 20.3531C45.1896 21.2124 45.638 22.3239 45.638 23.5662C45.638 25.4157 44.6572 27.097 43.0787 27.9843L46.2825 33.7755H42.0512ZM55.0813 34.2425C50.6445 34.2425 47.1698 30.6557 47.1698 26.1909C47.1698 21.7915 50.6445 18.2047 55.0813 18.2047C59.518 18.2047 63.0768 21.7915 63.0768 26.1909C63.0768 30.6464 59.518 34.2425 55.0813 34.2425ZM73.4261 34.2798C68.4756 34.2798 65.1878 30.3288 65.1878 25.4904C65.1878 20.7547 68.4943 16.7289 73.3047 16.7289C76.0228 16.7289 78.7783 17.8965 80.6744 19.5685L78.3019 22.4547C76.9195 21.1844 75.1355 20.4558 73.7998 20.4558C71.063 20.4558 69.2976 22.7629 69.2976 25.5184C69.2976 28.2739 71.1097 30.581 73.9118 30.581C75.6305 30.581 77.4146 29.4414 78.7316 28.0777L81.1321 30.9172C79.3574 32.6826 76.686 34.2798 73.4261 34.2798ZM92.9479 33.7755L92.0699 31.459H85.9331L85.0738 33.7755H81.1881L87.5491 18.6624H90.5941L96.9643 33.7755H92.9479ZM109.864 27.1717C108.958 28.1244 107.678 28.6755 105.763 28.6755H101.793V33.7755H98.1132V18.6624H105.763C107.715 18.6624 109.126 19.2602 110.069 20.3998C110.788 21.2591 111.199 22.3426 111.199 23.5756C111.199 24.8832 110.695 26.2937 109.864 27.1717ZM119.111 34.2425C115.627 34.2425 113.17 32.7854 111.508 31.4403L113.478 28.6848C114.422 29.4228 116.608 31.0667 119.045 31.0667C120.745 31.0667 121.735 30.2541 121.735 29.264C121.735 28.1805 120.559 27.9656 118.793 27.8068C115.73 27.5266 112.18 27.181 112.18 23.1272C112.18 19.3817 115.356 18.1954 118.018 18.1954C120.829 18.1954 123.333 19.2415 124.575 20.0448L122.576 22.8657C121.67 22.2866 119.951 21.3805 117.934 21.3805C116.822 21.3805 115.851 21.9316 115.851 22.9124C115.851 23.9772 117.43 24.0706 118.915 24.2294C121.437 24.4162 125.406 24.7805 125.406 28.909C125.416 32.7387 122.557 34.2425 119.111 34.2425Z" fill="#00723C"/>
<path d="M135.391 44.1652C134.747 43.5207 133.971 43.2031 133.065 43.2031C132.159 43.2031 131.384 43.5207 130.749 44.1652C130.104 44.819 129.777 45.5943 129.777 46.5097C129.777 47.4344 130.095 48.219 130.73 48.8728C131.365 49.5173 132.15 49.8536 133.056 49.8536C133.971 49.8536 134.747 49.5267 135.382 48.8728C136.026 48.219 136.344 47.4344 136.344 46.5097C136.353 45.5943 136.036 44.819 135.391 44.1652ZM135.064 48.5553C134.513 49.1157 133.84 49.3959 133.056 49.3959C132.271 49.3959 131.599 49.1157 131.048 48.5553C130.497 47.9948 130.226 47.313 130.226 46.519C130.226 45.7251 130.497 45.0526 131.048 44.4921C131.599 43.9317 132.262 43.6515 133.047 43.6515C133.831 43.6515 134.494 43.9317 135.055 44.4921C135.606 45.0432 135.877 45.7251 135.877 46.519C135.886 47.313 135.615 47.9948 135.064 48.5553Z" fill="#00723C"/>
<path d="M134.495 48.0929C134.486 47.9902 134.486 47.9061 134.486 47.822V47.5512C134.486 47.3737 134.421 47.1775 134.29 46.9907C134.159 46.7946 133.954 46.6731 133.664 46.6358C133.888 46.5984 134.066 46.5424 134.187 46.4583C134.421 46.3089 134.542 46.066 134.542 45.7391C134.542 45.2814 134.355 44.9732 133.982 44.8144C133.767 44.721 133.44 44.6836 132.991 44.6836H131.73V48.3264H132.366V46.888H132.87C133.206 46.888 133.44 46.9253 133.58 47.0094C133.813 47.1402 133.926 47.4204 133.926 47.8407V48.1303L133.944 48.2517C133.944 48.2704 133.944 48.2797 133.954 48.289C133.954 48.2984 133.963 48.3171 133.963 48.3264H134.561L134.542 48.2797C134.514 48.2424 134.505 48.1863 134.495 48.0929ZM133.552 46.3556C133.421 46.4116 133.216 46.4396 132.945 46.4396H132.366V45.1133H132.907C133.262 45.1133 133.524 45.16 133.683 45.244C133.841 45.3374 133.926 45.5149 133.926 45.7764C133.926 46.066 133.804 46.2528 133.552 46.3556Z" fill="#00723C"/>
</svg>
