<svg width="189" height="103" viewBox="0 0 189 103" fill="none" xmlns="http://www.w3.org/2000/svg">
<path d="M175.099 101.454C174.349 102.211 173.443 102.592 172.383 102.592C171.323 102.592 170.417 102.208 169.67 101.454C168.928 100.696 168.555 99.7779 168.555 98.703C168.555 97.628 168.928 96.7285 169.682 95.9671C170.424 95.2131 171.327 94.8398 172.383 94.8398C173.439 94.8398 174.349 95.2131 175.099 95.9671C175.849 96.7247 176.222 97.6317 176.222 98.703C176.222 99.7742 175.849 100.692 175.099 101.454ZM170.051 96.3515C169.409 97.0009 169.088 97.7885 169.088 98.7104C169.088 99.6323 169.405 100.427 170.043 101.084C170.685 101.737 171.465 102.066 172.383 102.066C173.301 102.066 174.073 101.737 174.722 101.084C175.36 100.427 175.681 99.6398 175.681 98.7104C175.681 97.781 175.36 96.9972 174.722 96.3515C174.077 95.6983 173.297 95.3699 172.383 95.3699C171.469 95.3699 170.696 95.6983 170.055 96.3515M172.312 96.568C172.834 96.568 173.219 96.6165 173.465 96.721C173.898 96.9039 174.114 97.2622 174.114 97.796C174.114 98.1729 173.98 98.4566 173.704 98.6358C173.558 98.7328 173.357 98.8 173.096 98.8448C173.428 98.8933 173.666 99.0351 173.819 99.2591C173.972 99.483 174.051 99.7033 174.051 99.916V100.23C174.051 100.33 174.051 100.435 174.058 100.551C174.066 100.662 174.081 100.733 174.096 100.771L174.122 100.819H173.431C173.431 100.819 173.424 100.789 173.42 100.778C173.416 100.767 173.413 100.748 173.413 100.733L173.398 100.595V100.259C173.398 99.7704 173.267 99.4457 172.999 99.2852C172.842 99.1919 172.566 99.1471 172.174 99.1471H171.584V100.819H170.842V96.568H172.316H172.312ZM173.114 97.2361C172.928 97.1316 172.629 97.0793 172.211 97.0793H171.577V98.6208H172.249C172.566 98.6208 172.801 98.5872 172.958 98.5238C173.249 98.4081 173.394 98.1879 173.394 97.8594C173.394 97.5534 173.301 97.3443 173.114 97.2361Z" fill="white"/>
<path d="M138.068 69.8475H133.18V73.8711H138.068C138.609 73.8711 139.049 73.7069 139.344 73.3821C139.665 73.0313 139.885 72.2549 139.885 71.7398C139.885 71.2248 139.687 70.7097 139.37 70.3588C139.027 69.9819 138.56 69.8438 138.068 69.8438V69.8475Z" fill="white"/>
<path d="M118.154 71.6328L116.016 77.2912H120.437L118.303 71.6328H118.154Z" fill="white"/>
<path d="M78.5668 69.4414C75.899 69.4414 73.8281 71.8787 73.8281 74.8012C73.8281 77.7238 75.899 80.2693 78.5668 80.2693C81.2346 80.2693 83.3801 77.7797 83.3801 74.8012C83.3801 71.8227 81.2607 69.4414 78.5668 69.4414Z" fill="white"/>
<path d="M61.3141 69.8457H56.3516V73.8693H61.3141C62.3365 73.8693 63.1573 72.9325 63.1573 71.7119C63.1573 71.223 62.982 70.7378 62.6835 70.3869C62.2842 69.9278 61.7618 69.8457 61.3141 69.8457Z" fill="white"/>
<path d="M147.444 44.1777H91.076V57.1742H89.2812V46.9696H40.6372C26.0145 46.9696 14.1641 58.8575 14.1641 73.5224C14.1641 88.1873 26.0145 100.075 40.6372 100.075H89.2812V90.3708H91.076V102.643H145.936C161.175 102.643 173.529 88.8069 173.529 73.5224C173.529 58.238 162.682 44.1777 147.444 44.1777ZM47.5623 75.2506C46.3459 76.5495 44.6184 77.3109 42.0438 77.3109H36.697V84.3242H31.7456V63.6202H42.0438C44.6743 63.6202 46.5698 64.4451 47.8459 65.9978C48.8086 67.1698 49.372 68.6627 49.372 70.3424C49.372 72.1489 48.6929 74.045 47.5623 75.2506ZM63.3342 83.6822L60.2187 77.7177H56.3531V83.6822H51.9913V66.0052H61.0656C63.5357 66.0052 65.0805 66.789 66.1289 67.9834C67.002 68.9837 67.5244 70.2864 67.5244 71.7458C67.5244 73.9106 66.3789 75.8776 64.532 76.9078L68.2744 83.6859H63.338L63.3342 83.6822ZM78.5651 84.2234C73.3787 84.2234 69.3154 80.0281 69.3154 74.8027C69.3154 69.5772 73.3787 65.4603 78.5651 65.4603C83.7515 65.4603 87.9156 69.6556 87.9156 74.8027C87.9156 79.9497 83.7515 84.2234 78.5651 84.2234ZM100.02 84.2757C94.2288 84.2757 90.3931 79.6549 90.3931 74.0002C90.3931 68.3455 94.255 63.7545 99.8891 63.7545C103.061 63.7545 106.288 65.1169 108.512 67.0727L105.736 70.4469C104.124 68.9651 102.035 68.1066 100.475 68.1066C97.2735 68.1066 95.2139 70.8015 95.2139 74.03C95.2139 77.2586 97.3295 79.9535 100.609 79.9535C102.62 79.9535 104.71 78.621 106.243 77.0197L109.046 80.3379C106.956 82.4094 103.837 84.2757 100.027 84.2757H100.02ZM122.844 83.6822L121.814 80.9762H114.642L113.635 83.6822H109.09L116.53 66.0052H120.09L127.53 83.6822H122.84H122.844ZM142.612 75.956C141.556 77.0645 140.056 77.714 137.825 77.714H133.183V83.6785H128.885V66.0015H137.825C140.108 66.0015 141.754 66.7069 142.858 68.032C143.694 69.0323 144.183 70.305 144.183 71.742C144.183 73.2835 143.593 74.9258 142.612 75.956ZM153.429 84.2234C149.35 84.2234 146.481 82.5177 144.541 80.9463L146.85 77.7252C147.955 78.5911 150.511 80.5133 153.358 80.5133C155.346 80.5133 156.499 79.5653 156.499 78.4008C156.499 77.128 155.123 76.8854 153.063 76.695C149.477 76.3703 145.328 75.9635 145.328 71.227C145.328 66.8413 149.037 65.4603 152.156 65.4603C155.447 65.4603 158.369 66.6771 159.816 67.6251L157.484 70.9284C156.428 70.2528 154.414 69.1965 152.055 69.1965C150.753 69.1965 149.623 69.8459 149.623 70.9843C149.623 72.231 151.466 72.3392 153.208 72.5259C156.156 72.7423 160.798 73.1753 160.798 77.9939C160.798 82.4617 157.458 84.2197 153.429 84.2197V84.2234Z" fill="white"/>
<path d="M42.3257 68.123H36.6953V72.811H42.3257C42.9489 72.811 43.4563 72.6207 43.7958 72.24C44.1615 71.8294 44.419 70.9448 44.419 70.3439C44.419 69.7429 44.1914 69.1383 43.8257 68.7277C43.4302 68.2835 42.8929 68.1268 42.3257 68.1268V68.123Z" fill="white"/>
<path d="M128.442 25.0279C128.035 24.6909 127.762 24.251 127.618 24.1995C127.475 24.148 127.537 24.3586 127.537 24.3586C127.537 24.3586 127.8 25.6737 127.944 26.2119C128.087 26.7548 128.159 27.1151 128.279 27.2181C128.399 27.321 128.518 27.0636 128.662 26.8577C128.805 26.6518 129.002 26.2213 129.002 26.2213C129.002 26.2213 129.188 25.8235 129.188 25.7065C129.188 25.5895 128.853 25.3648 128.446 25.0325L128.442 25.0279Z" fill="white"/>
<path d="M86.201 19.51C86.0621 19.5428 85.8946 19.6785 85.7989 19.8938C85.368 20.6707 84.9372 21.1527 83.9606 21.4522C83.9606 21.4522 83.683 21.5458 83.5872 21.5177C83.4915 21.4897 83.3575 21.1808 83.3575 21.1808C82.3569 19.3416 80.9065 18.794 78.9725 19.1356C78.6709 19.2058 78.3262 19.4211 78.3214 19.7955C78.2544 21.8641 80.04 22.7205 82.0745 22.7439L82.1367 22.9124C82.874 24.7095 82.2756 28.5985 81.9548 29.0946C81.5766 29.6843 81.5288 29.9136 80.7389 29.6702C78.6757 28.884 76.2343 25.2804 75.3534 23.7501C75.1763 23.4318 74.8077 23.5161 74.7024 23.5488C74.4104 23.6378 74.1423 23.8718 74.1902 24.1666C74.2093 24.2742 74.2428 24.424 74.2764 24.6065C74.5014 25.6502 75.1428 29.132 73.9221 28.065C72.8929 26.9793 72.0073 23.5395 71.4663 22.772C70.4084 22.5941 70.2169 21.9764 69.9297 22.0887C69.8196 22.1308 69.4701 22.2946 69.5898 22.6316C69.719 23.0107 72.6679 28.9776 69.2739 29.4316C68.2016 29.6422 66.3394 28.3645 65.6165 27.7842C65.4585 27.6579 65.3963 27.4707 65.4681 27.3537C66.7032 25.3366 66.9042 23.8437 66.2484 22.2619C65.9851 21.6254 65.3867 20.9374 64.6304 20.8438C64.1804 20.7923 63.7304 20.9561 63.2852 21.3305C61.2651 23.0341 62.1028 26.179 63.8357 28.1914C63.965 28.3411 63.3857 28.5845 63.2182 28.6547C62.7969 28.8232 62.4379 28.8325 62.1315 28.6968C61.1645 28.2663 61.5188 26.5393 61.4948 25.1915C61.4948 24.8358 61.4374 24.4006 61.4087 24.2134C61.2555 23.1276 59.4316 22.538 59.0439 21.7424C58.8811 21.4054 58.7327 21.148 58.5508 20.7362C58.4359 20.4648 57.4737 20.1606 57.153 20.2214C56.9998 20.2542 56.7508 20.3524 56.7556 20.6613C56.7844 22.4397 57.7753 28.4394 55.712 29.352C54.9413 29.6936 53.5674 27.1571 52.9595 25.4068C52.8111 24.9762 52.5669 24.5457 52.7058 24.1994C54.5919 19.4539 54.6254 13.9128 53.2036 10.6649C52.1792 8.17048 51.4611 8.05816 50.408 7.75397C49.9484 7.62293 49.4841 7.65101 48.9862 7.84756C46.9852 8.64316 47.057 16.6225 50.2165 23.7407C50.25 23.8016 50.5755 24.761 50.4654 25.1447C50.3314 25.6127 49.0197 28.9261 48.0575 29.3239C47.5453 29.7124 44.5917 29.7966 44.18 24.4895C43.8832 22.1729 46.0613 21.2837 47.057 21.7237C47.4065 21.8781 47.6267 22.6082 47.8038 22.3929C47.9043 22.2665 48.4357 21.5692 48.4165 21.2089C48.4022 20.9702 48.0527 20.7362 47.9187 20.6753C46.2959 19.9032 44.9124 20.184 43.414 21.0685C42.0737 21.9951 40.853 23.619 39.7806 25.8982C39.7232 26.0245 38.8089 29.2537 38.4594 29.0057C37.8419 28.7904 37.2962 25.7531 37.435 23.8764C37.4158 22.772 37.8227 22.2946 37.4445 21.4195C37.3392 21.1714 37.3727 21.2557 37.186 21.0123C37.0951 20.8906 36.3866 20.3899 35.6159 20.3665C35.2856 20.3571 34.5627 19.6224 34.2324 19.8142C32.8729 20.6145 32.3367 23.1417 31.6761 24.5691C31.6187 24.7001 31.3841 24.6861 31.3793 24.5504C31.3697 23.4038 31.3219 22.2993 31.1065 21.5692C30.7139 20.6707 29.3735 20.5396 29.0624 21.2089C28.7656 22.0185 25.7018 27.0448 23.3849 28.533C23.3657 28.547 23.3514 28.5564 23.3274 28.5658C23.1408 28.6594 22.1402 29.1414 20.9914 28.9589C20.7424 28.898 20.4743 28.8138 20.3978 28.6172C20.3116 28.416 20.4552 28.182 20.5988 27.9761C20.8573 27.6204 21.1158 27.2226 21.3983 26.7593C22.8104 24.4474 23.0306 23.0013 22.911 20.6894C22.911 20.6613 22.911 20.6285 22.9014 20.6005C22.662 19.0514 22.2456 17.3807 21.4892 16.2434C21.3695 16.0656 23.5189 14.1047 23.3322 11.8443C23.4806 9.63531 22.2934 5.9709 19.8281 3.3782C19.7515 3.29864 19.6701 3.21908 19.584 3.14888C17.7553 1.60917 15.9266 1.46409 13.6767 2.33925C11.6661 3.28928 0.536153 9.79443 0 21.5271C0.0335096 29.8153 6.20406 31.5984 9.95234 31.9447C11.5991 32.0945 13.0783 31.9681 14.3804 31.6452C15.917 31.2614 17.4058 30.6671 18.4686 30.0727C19.1435 29.6983 19.2824 30.7607 20.8382 30.9572C23.3131 31.6311 26.9752 27.6391 29.1437 24.204C29.1581 24.19 29.1677 24.176 29.1773 24.1619L29.6272 23.7688C29.948 26.4083 29.7278 29.1788 29.5459 30.6858C29.5124 30.9713 29.8235 31.1397 30.1395 31.1538C31.2309 31.1819 31.1065 30.1616 31.183 29.8855L31.408 29.0104C31.8772 27.1945 33.7824 23.4693 33.8877 23.3476C34.5627 22.5661 35.051 23.3476 35.0893 24.4989C35.1755 27.246 36.3004 30.5314 37.5594 31.1117C38.4881 31.1772 38.9764 30.5688 39.3929 29.9323C39.661 29.5158 40.0631 28.2382 40.4173 27.4005C40.7524 26.6142 41.1258 25.7297 41.571 24.8733L41.9348 24.1666L41.9253 24.906C41.9157 26.5393 42.4279 28.182 43.371 29.5439C44.156 30.6811 45.2858 31.4346 46.4012 31.5563C47.1719 31.6452 47.9426 31.4393 48.699 30.9572C50.0106 30.1148 51.8824 26.2117 51.8824 26.2117C53.0792 27.714 53.6728 31.0368 55.712 30.6109C57.67 30.2084 57.9572 27.1384 58.4215 24.5176L58.5364 23.8811C58.5604 23.7407 58.7566 23.722 58.9098 23.839L59.2066 24.1666C59.3885 24.307 59.4891 24.5082 59.4651 24.672C59.3311 25.5004 59.2449 28.0557 60.9731 29.7685C61.4087 30.1289 61.8682 30.288 62.3326 30.2459C63.1081 30.1663 63.8405 29.5439 64.3049 29.0291L64.4533 28.8653L64.6065 29.0057C66.191 30.508 68.0579 31.1912 69.7238 30.8777C70.8727 30.6671 71.6434 30.0493 72.036 29.0431C72.0743 28.9495 72.2083 28.9308 72.328 29.015L73.228 29.8387C73.7115 30.1804 74.3769 30.522 75.0519 30.2318C76.4688 29.6188 75.4731 26.5113 75.6359 26.5861C75.8369 26.6751 76.2534 27.2367 76.2534 27.2367C77.8236 29.4643 79.0826 30.5501 80.7772 31.0836C81.5384 31.3269 82.2133 31.3223 82.7638 31.0742C83.434 30.77 83.9367 30.1148 84.1952 29.1742C84.6069 27.7093 84.7936 24.8358 84.0372 22.6222L83.9893 22.4725L84.1808 22.4257C85.7318 22.0466 86.6127 21.3259 87.1057 20.1559C87.2015 19.9266 87.1488 19.6832 87.0483 19.6036C86.7132 19.3228 86.1962 19.496 86.1962 19.496L86.201 19.51ZM82.0027 21.7658C81.8639 21.9015 81.2176 21.6769 81.2176 21.6769C80.2363 21.3399 79.9299 21.0263 79.8294 20.6426C79.7767 20.4648 79.8677 20.3805 79.9538 20.3431C80.7772 20.2027 82.1415 21.6301 82.0027 21.7658ZM17.6452 28.6313C16.5394 29.6983 11.2401 31.3082 7.24285 29.5345C1.25422 26.1837 2.60896 18.9578 2.82916 17.9282C5.1126 8.03944 12.6858 5.06767 14.682 4.37503C15.4335 4.11763 16.7452 4.24867 17.4872 5.07235C19.1914 7.24853 21.1733 10.0144 20.4408 14.2778C20.369 14.4931 20.2876 14.6382 20.1153 14.7178C18.7606 14.203 17.8893 14.0345 17.109 14.0017C15.4623 13.9362 14.5862 14.8909 14.1841 16.3557C13.782 17.8112 14.0453 19.2152 14.299 20.5817C14.3517 20.8859 14.6772 22.1963 14.6916 22.3648C14.7107 22.5801 14.658 22.8937 14.4426 23.0902C12.748 24.5972 11.0582 25.1307 8.7077 24.7282C8.03272 24.5925 7.43434 24.4287 6.94605 24.0075C6.32373 23.371 4.01157 22.3648 4.60996 24.19C5.23228 25.3553 6.43384 25.6455 7.18062 25.8139C11.0725 26.7499 14.4139 24.8546 15.2181 24.3444C15.2995 24.293 15.491 24.3725 15.5532 24.4895L17.7266 28.2101C17.8319 28.402 17.7553 28.5143 17.6404 28.6266L17.6452 28.6313ZM19.1483 17.2449C18.6648 18.0124 16.9989 20.3946 16.5059 21.0965C16.4628 21.1621 16.2857 21.0872 16.2521 20.9936C15.8596 19.9593 14.7251 16.5289 16.4676 15.5133C16.9367 15.2981 17.5399 15.3168 18.3058 15.5648C19.0478 15.8035 19.4164 15.9345 19.5169 16.1919C19.627 16.4447 19.4403 16.7629 19.1244 17.259L19.1388 17.2449H19.1483ZM19.6079 27.3958C19.5169 27.6111 17.6308 23.8016 17.5064 23.5629C17.2622 23.0809 17.0851 22.5005 17.3436 22.1449L20.5749 17.4883L20.6898 17.7597C23.3418 23.5067 19.9717 27.4098 19.6127 27.4005L19.6079 27.3958ZM51.1404 21.6067C51.0782 21.7985 50.7478 21.7143 50.6808 21.485L50.1112 19.4398C49.7809 18.2511 49.5415 17.0765 49.4027 15.9158C49.0819 13.2482 48.8282 8.95672 50.5755 9.54171C51.4324 9.59319 52.4903 17.3432 51.1452 21.602L51.1404 21.6067ZM65.3341 24.8499H65.3245C65.2623 25.2851 64.7692 26.8061 64.6208 26.7827C64.4724 26.7593 62.9262 23.5956 63.9219 22.6175C64.1995 22.3367 64.4724 22.2338 64.7118 22.2993C65.4825 22.5146 65.3724 24.5738 65.3341 24.8499Z" fill="white"/>
<path d="M118.203 25.4664C117.921 25.1622 117.251 24.5304 116.964 24.3057C116.518 23.936 116.332 24.0156 116.312 24.1981C116.332 24.0156 116.518 23.9313 116.964 24.3057C117.251 24.5257 117.921 25.1575 118.203 25.4664C118.227 25.4898 118.237 25.5366 118.237 25.5927C118.237 25.5319 118.227 25.4898 118.203 25.4664Z" fill="white"/>
<path d="M122.177 28.8037C120.961 28.1672 120.357 27.7039 119.644 27.0674C119.443 26.8896 119.381 27.1517 119.223 27.3061C118.998 27.5261 118.816 27.9987 118.797 28.1672C118.816 27.9987 118.998 27.5214 119.223 27.3061C119.381 27.1517 119.443 26.8896 119.644 27.0674C120.357 27.7039 120.965 28.1672 122.177 28.8037Z" fill="white"/>
<path d="M120.528 23.7845C120.456 23.5927 120.208 23.5412 120.145 23.705C120.208 23.5365 120.456 23.588 120.528 23.7845Z" fill="white"/>
<path d="M119.706 25.4254C119.659 25.3505 119.635 25.271 119.625 25.1914C119.635 25.271 119.659 25.3458 119.706 25.4254Z" fill="white"/>
<path d="M110.515 22.3883C109.17 18.0219 107.494 19.351 107.48 19.8985C107.384 20.3759 107.351 20.8439 107.375 21.2978C107.355 20.8439 107.384 20.3759 107.48 19.8985C107.494 19.351 109.17 18.0219 110.515 22.3883C110.754 23.1605 110.903 24.2041 110.888 25.1026C110.903 24.1994 110.754 23.1558 110.515 22.3883Z" fill="white"/>
<path d="M155.184 27.5584C155.184 27.5584 155.145 27.5103 155.125 27.4863C155.145 27.5103 155.164 27.5344 155.184 27.5584Z" fill="white"/>
<path d="M153.647 25.0934C153.446 24.6488 153.26 24.1621 153.102 23.6426C153.26 24.1621 153.446 24.6441 153.647 25.0934Z" fill="white"/>
<path d="M154.17 26.1184C154.079 25.9639 153.992 25.8001 153.906 25.627C153.992 25.8001 154.083 25.9639 154.17 26.1184Z" fill="white"/>
<path d="M159.974 25.6972C159.734 24.78 158.437 21.0875 158.231 20.6101C157.527 18.9768 154.727 16.7211 154.191 16.707C153.626 16.707 153.114 17.1048 152.87 17.8068C153.114 17.1048 153.621 16.707 154.191 16.707C154.722 16.7211 157.527 18.9768 158.231 20.6101C158.437 21.0875 159.734 24.78 159.974 25.6972C159.993 25.7674 160.002 25.847 160.007 25.9219C160.007 25.8423 159.993 25.7674 159.974 25.6972Z" fill="white"/>
<path d="M131.274 22.7163C131.322 22.5338 131.384 22.1641 131.633 22.1641C131.882 22.1641 132.097 22.7725 132.097 22.7725C132.097 22.7725 133.284 26.6849 133.361 27.0172C133.38 27.1014 133.39 27.1669 133.385 27.2231C133.385 27.1669 133.385 27.1014 133.361 27.0172C133.284 26.6849 132.097 22.7725 132.097 22.7725C132.097 22.7725 131.882 22.1641 131.633 22.1641C131.384 22.1641 131.322 22.5338 131.274 22.7163L130.714 24.7614C130.685 24.8878 130.656 25.0048 130.656 25.1405C130.656 25.0048 130.685 24.8831 130.714 24.7614L131.274 22.7163Z" fill="white"/>
<path d="M129.654 29.2839C129.654 29.2839 129.624 29.245 129.609 29.2305C129.624 29.2499 129.639 29.2693 129.654 29.2839Z" fill="white"/>
<path d="M130.145 26.6364C130.016 26.4913 129.901 26.5147 129.867 26.6083C129.771 26.8797 129.302 27.7081 129.092 28.031C129.053 28.0871 129.039 28.1527 129.039 28.2229C129.039 28.1527 129.058 28.0871 129.092 28.031C129.302 27.7128 129.771 26.8844 129.867 26.6083C129.901 26.51 130.016 26.4866 130.145 26.6364Z" fill="white"/>
<path d="M187.763 24.8691C187.428 24.1297 186.978 23.3528 186.471 22.5806C186.356 22.4074 186.164 22.3092 185.968 22.3185L185.719 22.3326C185.652 22.3326 185.59 22.3279 185.523 22.3045L184.977 22.1173C184.752 22.0377 184.503 22.0845 184.312 22.239C184.197 22.3326 184.178 22.5151 184.273 22.6321C184.752 23.2264 185.154 23.7693 185.432 24.2092C188.074 27.7426 182.167 35.02 174.776 27.2278C173.641 25.7817 173.569 24.3777 173.244 22.9316C173.124 22.3981 172.641 19.899 172.473 19.1923C172.363 18.7571 171.626 18.4997 171.075 18.5278C170.582 18.5605 170.491 18.7758 170.386 19.1876C170.271 19.6135 170.238 20.0441 170.209 20.4512C170.194 20.6431 170.242 22.0518 170.257 22.356C170.276 23.0673 170.305 23.8068 170.285 24.5368C170.257 25.7443 170.151 26.9611 170.065 28C170.041 28.1638 169.979 28.3744 169.85 28.5616L169.84 28.5756C169.644 28.8752 169.271 28.7207 168.945 28.4399C168.414 27.9813 167.925 26.8862 167.815 26.6428C167.375 25.7115 166.973 23.9565 166.911 22.9316C166.853 21.9816 166.848 21.0175 166.844 20.0815C166.844 19.7305 166.844 19.3795 166.834 19.0379C166.824 18.3359 166.652 18.2048 166.279 18.1955C165.996 18.1814 165.79 18.2282 165.652 18.3312C165.494 18.4482 165.403 18.6635 165.369 18.9677C165.288 19.8428 165.278 21.668 165.321 23.3154C165.36 24.0174 164.737 27.5226 164.737 27.5226C164.708 27.7473 164.536 28.3604 164.182 28.1825C164.043 28.1825 163.689 27.5273 163.584 27.0968C162.377 23.5821 161.453 19.8288 161.329 19.5339C161.046 18.8413 160.74 18.1253 160.419 17.442C160.266 17.1238 159.907 16.6183 159.218 16.8336C159.098 16.871 158.763 17.1986 158.495 17.4794C158.294 17.69 157.925 17.6386 157.695 17.3624L157.628 17.2876C157.628 17.2876 157.609 17.2642 157.6 17.2548C157.016 16.6417 156.451 16.0661 155.565 15.7572C154.469 15.3735 152.956 15.7057 152.276 16.4873C151.649 17.2033 151.233 18.0598 150.993 19.1783C150.74 20.3389 151.195 22.9456 151.97 25.2295C152.008 25.3231 152.229 25.8145 152.444 26.2965C152.669 26.7926 152.257 27.2091 151.788 26.9657C151.769 26.9564 151.573 26.8675 151.343 26.7645C150.716 26.4837 150.127 26.0531 149.667 25.4915C148.595 24.1812 148.25 22.9831 147.844 21.9207C147.676 21.4808 147.087 19.6135 146.867 18.9677C146.738 18.5886 145.833 18.0691 145.33 18.0504C145.038 18.0364 144.608 18.8788 144.426 19.1876C144.383 19.2625 144.272 19.2485 144.21 19.1689C143.933 18.8086 143.698 18.1814 143.387 17.9849C142.788 17.6011 142.085 17.7275 141.769 17.7602C141.314 17.8117 141.52 18.0551 140.955 18.9724L140.615 19.6275C140.543 19.7679 140.328 19.7118 140.266 19.5386C140.079 19.0098 139.782 18.1814 139.686 18.041C139.366 17.5777 138.786 18.0364 138.552 18.0925C138.064 18.2563 137.728 18.378 137.709 18.6541C137.633 19.0426 137.968 25.4822 135.407 27.9766C135.335 28.0468 135.148 27.415 135.024 26.9564C134.239 24.0969 132.707 19.9317 132.597 19.4637C131.965 16.8944 131.673 14.5264 131.386 14.3158C130.806 13.9086 130.17 14.3345 129.442 15.0131C129.279 15.5747 129.887 16.038 130.112 16.9459C130.519 18.9958 130.73 21.4668 129.528 24.4479C129.509 24.4947 129.461 24.5275 129.409 24.5134C128.872 24.3356 127.68 22.6414 127.451 22.4449C127.096 22.0986 126.905 22.0705 126.594 22.1688C126.498 22.2015 126.125 22.3794 126.259 23.0673C126.388 23.7225 126.78 26.362 127.173 27.4805C127.345 27.8268 126.895 27.9251 126.603 27.9766C125.799 28.1451 125.411 28.1872 124.626 27.986C123.827 27.78 123.544 26.9751 123.382 26.4416C122.932 24.9159 121.515 21.0409 121.352 19.8194C121.237 18.9583 121.29 18.0504 121.333 17.1752C121.347 16.871 121.366 16.5622 121.376 16.2627C121.385 15.9117 121.309 15.3267 120.682 15.3267C120.481 15.3267 120.327 15.3688 120.213 15.4577C120.04 15.5934 119.504 15.7011 119.48 16.0755C119.447 16.5809 119.719 17.1893 119.7 17.6994C119.676 18.2938 118.441 24.359 118.279 24.256C117.642 23.8442 116.364 22.1032 115.492 22.4823C115.239 22.6134 114.602 22.9924 115.291 24.9206C115.521 25.5898 115.828 26.245 116.129 26.8815C116.234 27.1061 116.34 27.3261 116.44 27.5507L116.483 27.6396C116.617 27.9204 116.316 28.7909 115.65 28.9454C113.898 29.3572 112.735 28.9688 111.553 28.454C110.859 27.9906 113.262 27.5507 111.404 21.6961C110.734 19.5901 109.403 18.1206 108.034 17.91C107.144 17.779 106.636 17.924 106.191 18.5278C104.238 22.2015 107.326 26.5445 108.527 27.7941C108.733 28.0094 108.025 28.3884 107.79 28.4727C106.828 28.8237 105.55 29.1372 102.285 27.7707C101.567 27.5086 101.131 27.3354 101.232 26.8862C101.232 26.8862 103.482 17.6947 104.09 16.4826C104.128 16.4077 104.19 16.3516 104.262 16.3188C116.431 11.0913 110.997 3.21491 109.466 1.43652C109.456 1.42716 109.451 1.42248 109.442 1.41312C108.293 0.23377 105.775 -1.13278 104.688 1.5582C103.745 3.18215 102.256 13.2254 101.754 15.4671C101.696 15.9304 100.179 16.2814 99.743 16.389C97.2154 17.0114 96.2436 17.2361 93.874 16.4264C93.1368 16.1784 89.8481 14.0911 89.0726 13.8337C89.0151 13.8244 88.9577 13.8197 88.9002 13.8104C88.2875 13.8337 87.8806 14.1801 87.8088 14.868C87.713 15.2845 87.6795 15.5326 88.1487 15.6543C88.8619 15.8555 89.6183 16.1129 90.389 16.4171C90.8199 16.5903 93.1177 17.6386 93.898 17.8632C95.3724 18.2844 97.0766 18.3359 98.9675 18.0036C99.1446 17.9708 100.59 17.5216 100.806 17.4701C101.227 17.3671 100.691 18.612 100.566 19.0472C100.126 20.5635 99.3744 23.2592 99.1637 24.5977C99.1111 24.9253 98.7042 24.7287 98.3691 24.4292C97.3925 23.554 96.8659 22.8286 96.0091 21.7429C95.4777 21.069 93.8692 19.665 93.4192 19.2953C92.1698 18.4482 91.8634 18.8132 91.6337 18.8881C90.2311 19.8381 90.5949 27.8643 95.65 31.6597C96.5548 32.3477 97.2489 32.9888 98.168 32.7502C99.6233 32.5536 100.509 29.7971 100.834 28.7956C100.897 28.599 101.165 28.5242 101.442 28.6224C102.156 28.8705 103.434 29.3244 103.874 29.4789C105.87 30.1668 107.445 30.1528 108.972 29.404C109.288 29.2496 109.566 29.4508 110.959 30.0685C114.066 30.8969 115.919 30.4383 116.886 29.6099C117.503 29.0858 117.872 29.2776 118.283 29.5818C119.188 30.2511 123.358 34.0652 124.468 30.4851C124.641 29.9843 124.607 29.4227 124.736 29.4508C126.378 29.8158 127.886 28.9266 127.953 28.9875C128.47 30.0124 130.328 31.0607 131.204 31.4023C132.242 31.7955 134.33 32.1605 135.373 30.6301C135.833 30.0077 135.584 29.6333 135.766 29.5538C136.019 29.3806 136.661 28.9594 136.972 28.4867C138.882 25.3511 138.638 22.0845 138.868 21.9769C139.016 21.9067 139.787 28.014 140.194 30.0592C140.251 30.5599 141.075 30.5459 141.668 30.7705C142.157 30.6769 142.405 30.4429 142.391 30.2183C142.348 29.624 142.042 28.6833 141.979 28.0889C141.874 27.0968 141.539 25.2716 141.515 24.2467C141.348 21.4995 141.855 20.8022 142.061 20.4699C142.358 19.9879 142.793 20.0253 143.061 20.498C143.152 20.6571 143.224 20.7975 143.258 20.8818C143.593 21.8084 144.785 28.337 144.947 28.9641C145.024 29.2589 145.847 29.3385 146.139 29.3666C146.403 29.3853 146.628 29.4836 146.752 29.3291C146.92 29.1045 147.001 28.7722 146.939 28.4633C146.848 28.014 145.795 23.4558 145.704 22.8427C145.68 22.6836 145.445 21.3919 145.421 20.8256C145.402 20.4419 145.804 20.0253 146.125 20.7039C146.91 22.3513 147.418 24.9767 149.567 27.0734C150.577 27.9532 151.314 28.5522 152.578 29.1513C153.31 29.4976 155.23 29.9937 155.8 30.2464C157.121 30.8361 158.332 30.7705 159.735 30.1668C160.022 30.0451 160.3 29.8954 160.539 29.7035C161.142 29.2121 161.434 28.6739 161.669 28.702C161.975 28.7441 162.061 29.8252 163.253 30.8267C163.622 31.1309 164.12 31.2666 164.622 31.1917C165.087 31.1215 165.489 30.8875 165.757 30.5225C165.934 30.2838 166.422 28.8143 166.619 28.22C166.657 28.1076 166.8 28.103 166.887 28.2106L167.758 29.2917C168.351 30.0685 169.505 30.3259 170.328 29.8626C170.956 29.5116 171.133 28.9407 171.228 28.4306C171.329 27.869 171.458 25.178 171.635 25.2903L172.195 26.0999C174.263 29.1606 176.7 30.5412 178.131 31.056C182.756 32.9654 186.36 31.1496 187.112 29.9515C187.907 28.6833 188.797 27.1529 187.763 24.8785V24.8691ZM104.564 13.3049L104.927 10.9743C105.004 10.3799 105.76 5.75613 106.349 3.65482C106.526 3.01835 106.89 1.8156 107.675 2.33975C109.102 3.29447 110.04 4.9465 110.121 6.90272C110.184 8.42371 109.729 10.1225 108.575 11.826C107.972 12.8042 105.794 13.8337 104.559 14.6153C104.492 14.6574 104.453 14.6153 104.434 14.5123C104.425 14.4702 104.425 14.4141 104.425 14.3532C104.425 14.0209 104.52 13.4921 104.559 13.3096L104.564 13.3049ZM98.3547 26.7224C98.3547 26.7224 97.7228 28.8986 97.2633 29.9422C97.1388 30.2277 95.9851 29.9375 95.5974 29.7316C92.5719 28.131 92.1938 24.4994 92.1938 22.7818C92.1938 22.2109 92.2368 21.8505 92.2368 21.8505C92.1842 21.2515 92.9214 21.0081 93.5246 21.4527C95.0469 22.5712 96.5309 24.3918 97.4021 25.2061C98.0819 26.0157 98.4313 26.2591 98.393 26.5773C98.3882 26.6241 98.3739 26.6709 98.3547 26.7224ZM110.519 26.7505C110.418 26.8815 110.37 27.1108 110.174 26.947C110.174 26.947 107.522 24.4807 107.378 21.303C107.359 20.849 107.388 20.381 107.484 19.9037C107.498 19.3561 109.174 18.027 110.519 22.3934C110.758 23.1656 110.906 24.2092 110.892 25.1078C110.878 25.8098 110.768 26.4229 110.519 26.7551V26.7505ZM117.575 26.9751C117.302 26.7551 116.34 24.5228 116.306 24.2888C116.306 24.2607 116.302 24.2326 116.306 24.2046C116.325 24.022 116.512 23.9378 116.957 24.3122C117.245 24.5322 117.915 25.1639 118.197 25.4728C118.221 25.4962 118.231 25.543 118.231 25.5992C118.231 26.011 117.757 27.1249 117.575 26.9798V26.9751ZM120.146 23.7038C120.208 23.5353 120.457 23.5868 120.528 23.7834L121.385 26.0765C121.395 26.0999 121.4 26.128 121.4 26.1514C121.4 26.3246 121.213 26.465 121.055 26.3714L120.299 25.9642C119.988 25.7489 119.806 25.5851 119.71 25.4213C119.662 25.3465 119.638 25.2669 119.629 25.1873C119.629 25.1827 119.629 25.1733 119.629 25.1686C119.605 24.8457 119.858 24.4573 120.155 23.6944L120.146 23.7038ZM121.993 29.5631C121.883 29.8392 121.615 29.989 121.309 29.9609C121.074 29.9375 120.667 29.7737 120.576 29.7222C120.016 29.404 119.652 29.1606 119.179 28.7956C118.877 28.5663 118.8 28.468 118.796 28.2621C118.796 28.234 118.796 28.2012 118.796 28.1685C118.815 28 118.997 27.5226 119.222 27.3074C119.38 27.1529 119.442 26.8909 119.643 27.0687C120.356 27.7052 120.964 28.1685 122.175 28.805C122.175 28.819 122.175 28.8377 122.175 28.8611C122.166 29.0202 122.056 29.3853 121.984 29.5631H121.993ZM130.715 24.7568L131.275 22.7116C131.323 22.5291 131.386 22.1594 131.635 22.1594C131.883 22.1594 132.099 22.7678 132.099 22.7678C132.099 22.7678 133.286 26.6803 133.363 27.0125C133.382 27.0968 133.391 27.1623 133.387 27.2185C133.377 27.3822 133.262 27.4197 133.051 27.3682C132.769 27.298 131.275 26.7317 130.931 26.0157C130.711 25.6273 130.648 25.3652 130.653 25.1405C130.653 25.0048 130.682 24.8831 130.711 24.7615L130.715 24.7568ZM128.652 26.8581C128.509 27.064 128.389 27.3214 128.269 27.2185C128.15 27.1155 128.078 26.7551 127.934 26.2123C127.79 25.6694 127.527 24.359 127.527 24.359C127.527 24.359 127.47 24.1484 127.609 24.1999C127.752 24.2514 128.025 24.6959 128.432 25.0282C128.839 25.3652 129.174 25.5898 129.174 25.7021C129.174 25.8145 128.987 26.2169 128.987 26.2169C128.987 26.2169 128.791 26.6475 128.647 26.8534L128.652 26.8581ZM133.104 29.638C132.98 29.8158 132.822 30.0217 132.707 30.106C132.329 30.3681 131.807 30.3915 131.309 30.223C130.486 29.9516 130.007 29.6708 129.653 29.2823C129.638 29.2683 129.624 29.2449 129.61 29.2308C129.418 29.0062 129.255 28.7535 129.093 28.4399C129.054 28.3697 129.04 28.2948 129.04 28.2246C129.04 28.1544 129.059 28.0889 129.093 28.0328C129.303 27.7145 129.772 26.8862 129.868 26.6101C129.902 26.5118 130.016 26.4884 130.146 26.6381C130.146 26.6381 131.831 28.6599 133.19 28.8143C133.382 28.8377 133.434 28.936 133.415 29.0624C133.387 29.2683 133.171 29.5444 133.104 29.638ZM159.337 27.6022C159.021 28.0094 157.547 29.7924 155.417 27.7988C155.34 27.7286 155.264 27.649 155.177 27.5554C155.158 27.532 155.139 27.5086 155.12 27.4852C154.823 27.1483 154.493 26.6849 154.172 26.1187C154.081 25.9642 153.995 25.8004 153.909 25.6273C153.823 25.4588 153.736 25.2809 153.655 25.0937C153.454 24.6491 153.267 24.1624 153.109 23.643C153.071 23.5166 153.033 23.3856 152.999 23.2545C152.568 21.654 152.406 19.7773 152.875 17.807C153.119 17.105 153.626 16.7072 154.196 16.7072C154.727 16.7213 157.533 18.977 158.236 20.6103C158.442 21.0877 159.739 24.7802 159.979 25.6975C159.998 25.7677 160.008 25.8472 160.012 25.9221C160.031 26.4697 159.701 27.1389 159.347 27.5975L159.337 27.6022Z" fill="white"/>
<path d="M121.056 26.3758L120.3 25.9687C119.989 25.7534 119.807 25.5896 119.711 25.4258C119.807 25.5849 119.993 25.7534 120.3 25.9687L121.056 26.3758C121.214 26.4647 121.406 26.3243 121.401 26.1559C121.401 26.329 121.214 26.4694 121.056 26.3758Z" fill="white"/>
<path d="M117.575 26.9737C117.303 26.7537 116.34 24.5214 116.307 24.2874C116.307 24.2593 116.302 24.2312 116.307 24.2031C116.307 24.2312 116.307 24.2593 116.307 24.2874C116.34 24.5214 117.303 26.7537 117.575 26.9737C117.757 27.1187 118.236 26.0049 118.231 25.5931C118.231 26.0049 117.757 27.1187 117.575 26.9737Z" fill="white"/>
<path d="M97.257 29.9416C97.1326 30.2271 95.9789 29.9369 95.5911 29.731C95.9741 29.9322 97.1278 30.2271 97.257 29.9416Z" fill="white"/>
<path d="M110.171 26.9468C110.367 27.1106 110.42 26.8813 110.515 26.7502C110.415 26.8813 110.367 27.1106 110.171 26.9468Z" fill="white"/>
<path d="M121.31 29.9605C121.076 29.9371 120.669 29.7733 120.578 29.7219C120.013 29.4036 119.654 29.1603 119.18 28.7952C118.878 28.5659 118.802 28.4676 118.797 28.2617C118.797 28.4676 118.873 28.5659 119.18 28.7952C119.654 29.1603 120.018 29.4036 120.578 29.7219C120.669 29.7733 121.076 29.9371 121.31 29.9605C121.616 29.9886 121.885 29.8342 121.995 29.5627C122.066 29.3896 122.177 29.0246 122.186 28.8608C122.177 29.0199 122.066 29.3849 121.995 29.5627C121.885 29.8389 121.616 29.9886 121.31 29.9605Z" fill="white"/>
<path d="M159.34 27.6067C159.024 28.0091 157.549 29.7875 155.419 27.7985C155.342 27.7283 155.266 27.6488 155.18 27.5552C155.261 27.6441 155.342 27.7283 155.419 27.7985C157.549 29.7875 159.024 28.0091 159.34 27.6067C159.699 27.1433 160.029 26.4694 160.005 25.9219C160.024 26.4694 159.694 27.1387 159.34 27.5973V27.6067Z" fill="white"/>
<path d="M153.902 25.6273C153.816 25.4588 153.73 25.2809 153.648 25.0938C153.73 25.2763 153.816 25.4541 153.902 25.6273Z" fill="white"/>
<path d="M155.12 27.4837C154.823 27.1468 154.493 26.6835 154.172 26.1172C154.497 26.6835 154.828 27.1468 155.12 27.4837Z" fill="white"/>
<path d="M130.934 26.0158C130.714 25.6273 130.652 25.3653 130.657 25.1406C130.657 25.3653 130.714 25.632 130.934 26.0158Z" fill="white"/>
<path d="M132.71 30.1061C132.332 30.3682 131.81 30.3916 131.313 30.2231C131.81 30.3869 132.332 30.3682 132.71 30.1061C132.825 30.0266 132.983 29.816 133.108 29.6381C132.983 29.816 132.825 30.0219 132.71 30.1061Z" fill="white"/>
<path d="M129.039 28.2246C129.039 28.2948 129.058 28.3697 129.092 28.4399C129.254 28.7488 129.412 29.0062 129.609 29.2308C129.417 29.0062 129.254 28.7534 129.092 28.4399C129.053 28.3697 129.039 28.2948 129.039 28.2246Z" fill="white"/>
</svg>
