<svg preserveAspectRatio="none" width="100%" height="100%" overflow="visible" style="display: block;" viewBox="0 0 57.0046 90.3781" fill="none" xmlns="http://www.w3.org/2000/svg">
<g id="Group">
<path id="Vector" d="M52.1085 81.8027C50.6397 81.379 50.4617 80.8545 51.1738 79.5835C51.797 78.4738 52.3756 77.3037 52.8874 76.1537C55.469 70.5249 56.8488 64.7347 55.2464 58.6822C54.0892 54.3648 53.2435 49.9667 50.662 46.0527C50.3059 45.5282 50.3282 44.701 50.4394 44.0554C50.8845 40.9888 51.8637 37.9424 51.797 34.896C51.6634 29.126 50.7065 23.4568 48.2807 17.9894C46.0775 13.0264 43.763 8.16423 40.3581 3.7661C37.2424 -0.248715 32.4354 -1.11624 27.851 1.46616C25.2249 2.93892 23.2443 4.97659 21.3081 7.07478C17.3913 11.3115 13.7415 15.6895 10.8039 20.5315C7.82179 25.4138 5.30702 30.4777 3.37087 35.7837C0.522271 43.6519 -0.590459 51.6614 0.299727 59.9533C0.789329 64.4119 1.45697 68.8101 3.43763 72.9257C4.37233 74.8827 5.15124 76.9607 6.55328 78.6352C8.24463 80.6729 10.3811 82.4685 12.562 84.1228C14.3869 85.5149 16.4343 86.8061 18.593 87.6736C23.2443 89.5499 28.0958 90.5384 33.3034 90.3569C38.3107 90.1955 42.3165 88.0973 46.122 85.6359C47.5908 84.6877 48.4588 84.3649 50.0611 85.1517C52.5314 86.3421 54.8459 86.4631 57.0046 85.7772V81.3387C55.5357 82.1053 53.7776 82.2869 52.1085 81.8027ZM33.5037 86.221C27.851 86.7859 22.6211 85.5956 18.1257 82.9123C13.2074 80.0071 9.06805 76.073 7.39895 70.7267C6.33073 67.2969 5.50731 63.7663 5.01771 60.2155C4.57262 56.9472 4.35007 53.5578 4.70615 50.2895C5.19575 45.7299 5.79662 41.1301 7.77728 36.8126C8.48943 35.2188 8.82325 33.4838 9.71344 31.9706C12.6733 26.9067 15.4996 21.7621 18.9269 16.9605C21.5307 13.329 24.8911 10.1212 28.0735 6.83268C29.0082 5.86429 30.3435 5.15816 31.6343 4.59327C33.6594 3.70557 35.5288 4.35116 36.8418 6.08621C41.5598 12.3001 44.7868 19.1394 46.5226 26.4629C47.6131 31.1435 47.7689 35.9249 46.7229 40.7064C46.4781 41.7757 46.2111 41.8967 45.0761 41.5739C43.1177 41.0292 41.0925 40.4845 39.0673 40.3432C34.1713 40.0204 32.2796 42.5221 31.6788 46.2948C30.8553 51.3587 32.4799 56.1402 33.5482 60.9822C33.7262 61.8094 34.1936 62.5962 34.3271 63.4435C34.4161 63.9883 34.3493 64.7549 33.9933 65.1382C30.2767 69.1732 24.1567 70.8074 18.6153 69.1732C17.9477 68.9715 17.4135 68.346 16.8349 67.882C16.0338 67.2364 15.5442 66.0259 14.0976 66.611C12.9626 67.0548 12.562 68.689 12.8736 69.8793C13.3855 71.8363 14.7652 72.6029 16.7904 73.1275C22.955 74.7818 28.6299 74.2371 33.9042 70.767C34.5496 70.3433 35.3508 70.1013 35.9294 69.839C38.5777 73.7731 41.226 77.687 43.9633 81.7422C41.315 84.4053 37.7765 85.7973 33.5037 86.221ZM44.1636 48.9579C42.4723 52.5087 40.4916 55.9586 38.6445 59.4489C38.3774 59.4287 38.1326 59.4085 37.8656 59.3884C37.6208 58.6015 37.2647 57.8349 37.1312 57.0279C36.6638 54.2438 36.2855 51.4394 35.8849 48.6351C35.8626 48.4334 35.8626 48.2316 35.8849 48.0299C36.3968 44.5598 38.0658 43.2283 41.9604 44.701C45.3654 45.972 45.5212 46.1133 44.1636 48.9579ZM46.8342 78.2519C45.4544 76.2949 44.0078 74.459 42.8061 72.5021C41.7824 70.8275 41.0925 69.0118 40.18 67.2768C39.4679 65.9452 40.2468 64.8961 40.8477 63.8067C43.0509 59.7717 45.2764 55.7569 47.5018 51.7219C47.6353 51.5 47.7911 51.278 48.1249 50.7938C52.3311 60.2357 52.6872 69.2539 46.8342 78.2519Z" fill="url(#paint0_linear_0_4)"/>
</g>
<defs>
<linearGradient id="paint0_linear_0_4" x1="28.5023" y1="0.00012207" x2="28.5023" y2="130.214" gradientUnits="userSpaceOnUse">
<stop stop-color="#86D165"/>
<stop offset="1" stop-color="#A8F785"/>
</linearGradient>
</defs>
</svg>
