<svg width="497" height="93" viewBox="0 0 497 93" fill="none" xmlns="http://www.w3.org/2000/svg">
<path d="M374.961 54.7167C377.921 49.5317 379.834 49.4712 384.819 54.2526C385.042 53.9097 385.376 53.5869 385.465 53.2237C385.754 52.215 386.311 51.6097 387.579 51.6702C388.803 51.7308 389.804 51.7711 390.361 53.1027C391.629 56.0079 393.187 58.8323 394.522 61.6972C396.214 65.2883 398.595 68.4558 401.51 71.3004C402.779 72.5513 404.114 73.7214 405.472 74.8916C406.006 75.3556 406.696 75.6986 407.586 75.86C406.963 74.7504 406.273 73.6811 405.761 72.5513C404.693 70.2312 403.447 67.9514 402.734 65.5506C401.688 61.9191 400.264 58.3078 400.576 54.4544C400.798 51.8316 401.399 49.2896 402.979 47.0098C404.604 44.6695 408.476 43.7819 411.503 44.8713C414.151 45.8195 415.887 47.6958 417.712 49.4913C418.046 49.8141 418.313 50.1773 418.379 50.258C419.136 49.3501 419.67 48.0993 420.605 47.7765C422.319 47.1712 423.609 48.2203 424.388 49.6124C425.434 51.4685 426.369 53.3649 427.326 55.2614C428.75 58.0859 430.33 60.8297 431.487 63.7348C433.49 68.7584 435.026 73.8828 434.759 79.3099C434.714 80.1371 436.628 82.3765 437.452 82.3361C437.875 82.3159 438.587 81.7309 438.587 81.4081C438.609 78.059 438.676 74.71 438.386 71.4013C438.119 68.133 437.385 64.8848 436.962 61.6165C436.628 59.0543 436.383 56.4517 436.294 53.8693C436.228 51.993 437.096 51.2667 438.809 51.3676C440.189 51.4483 440.656 52.2351 440.879 54.0105C441.48 58.6306 441.903 63.291 442.993 67.8304C443.661 70.6347 445.33 73.2776 446.754 75.9003C447.489 77.2722 448.624 78.4827 449.892 80.1572C450.382 79.1888 450.893 78.6845 450.871 78.1801C450.76 75.0732 450.626 71.9662 450.315 68.8795C450.048 66.0953 449.58 63.3515 449.202 60.5876C449.069 59.6797 448.868 58.7718 448.824 57.8639C448.757 56.714 448.713 55.564 448.868 54.4342C449.002 53.4255 449.113 52.336 450.804 52.2351C452.629 52.1141 453.052 53.3044 453.386 54.3132C454.521 57.642 455.433 61.0314 456.502 64.3805C457.859 68.597 460.196 72.3092 463.178 75.7995C465.47 78.5231 468.074 80.7625 471.546 81.9124C474.35 82.8405 477.332 83.5466 480.292 83.8492C483.63 84.1922 486.456 82.6791 488.993 80.7625C490.462 79.6529 492.131 78.6441 492.154 76.6872C492.176 75.6179 492.198 74.4276 491.775 73.4592C490.707 71.0785 489.594 68.6575 488.081 66.519C485.967 63.5533 483.497 60.7893 481.115 58.0052C480.514 57.299 479.535 56.8552 478.845 56.1894C476.175 53.6272 473.66 50.9238 470.9 48.4624C468.096 45.9809 465.136 43.6003 462.043 41.381C459.239 39.3837 456.279 37.5276 453.208 35.8733C451.072 34.7233 448.713 33.5128 446.086 33.9768C444.328 34.2795 442.348 34.804 441.101 35.8531C439.455 37.2654 438.253 39.2021 437.185 41.0582C436.161 42.8538 435.716 43.2775 433.379 43.0152C432.778 40.5539 433.602 38.375 434.892 36.2364C437.118 32.5444 440.745 30.7287 445.107 30.0024C446.465 29.7805 448.023 29.9418 449.358 30.2848C454.944 31.7374 459.617 34.683 464.224 37.7899C470.233 41.8451 475.552 46.5862 480.603 51.5088C486.167 56.9359 491.686 62.484 494.802 69.525C496.271 72.8136 497.45 76.1222 495.826 79.673C494.357 82.8607 491.508 84.6764 488.237 86.2097C482.896 88.6912 477.466 88.6105 472.147 86.6334C468.764 85.3624 465.404 83.7282 462.622 81.63C460.307 79.895 458.838 77.2722 457.014 75.0328C456.346 74.2056 455.723 73.3179 454.81 72.1074C454.81 74.8109 454.899 77.0301 454.788 79.2292C454.721 80.8028 454.387 82.3966 452.807 83.4054C450.671 84.7975 447.444 84.051 445.575 81.7914C444.907 80.9844 444.239 80.1976 443.238 78.9871C443.082 79.9757 443.038 80.5809 442.882 81.1458C442.548 82.4572 442.414 83.8896 441.747 85.0597C440.389 87.4606 437.118 87.8237 434.892 86.008C434.091 85.3624 433.379 84.3334 432.489 84.2124C431.754 84.1115 430.864 85.0799 430.019 85.5641C426.258 87.6825 422.408 87.9448 418.379 86.129C414.908 84.5554 411.302 83.244 407.898 81.5897C404.559 79.9757 401.622 77.8371 399.218 75.1539C397.95 73.7416 396.481 72.4302 395.413 70.9171C393.61 68.3751 392.03 65.6918 390.339 63.0691C390.049 62.6051 389.715 62.1612 389.426 61.7174C389.248 61.7779 389.07 61.8384 388.892 61.8989C389.56 64.3199 390.116 66.7813 390.895 69.1821C391.652 71.5022 392.72 73.7416 393.432 76.0819C393.699 76.9494 393.655 78.0994 393.209 78.866C392.386 80.2581 389.649 79.7739 389.048 78.1397C387.69 74.3872 386.622 70.5741 385.22 66.8418C383.863 63.3112 382.216 59.8814 380.68 56.4113C380.591 56.1894 380.28 56.0482 379.834 55.6649C379.634 56.2903 379.3 56.7745 379.345 57.2385C379.634 61.556 379.768 65.8734 380.369 70.1505C380.969 74.5082 382.104 78.8055 382.928 83.1229C383.128 84.172 382.861 85.2615 381.526 85.5439C380.235 85.8264 379.055 85.6448 378.699 84.1317C377.854 80.5204 377.008 76.9292 376.096 73.3381C375.517 71.018 374.827 68.718 374.204 66.4181C373.714 64.6225 373.203 62.8471 372.691 61.0516C372.602 60.7691 372.401 60.5069 371.889 60.2648C371.889 61.7981 371.711 63.3515 371.934 64.8445C372.735 70.2312 371.778 75.3556 369.352 80.2783C368.64 81.7511 367.216 82.3765 365.591 82.8809C364.813 83.123 363.833 83.5668 363.522 84.1519C361.63 87.8035 358.314 88.5298 354.42 87.0167C351.571 85.8869 348.967 84.4141 347.409 81.7712C346.898 80.9037 346.141 80.5406 344.872 80.9642C342.736 81.6905 340.533 82.3563 338.151 81.6704C337.706 81.5291 337.15 81.6502 336.438 81.6502C336.438 82.5379 336.527 83.2844 336.416 84.0308C336.015 86.7948 333.411 88.893 329.739 87.1781C327.224 86.008 324.865 84.4948 322.662 82.8809C321.483 82.0133 320.882 81.8116 319.836 82.901C317.343 85.4834 313.938 86.4518 310.355 86.4922C307.039 86.5325 303.879 85.4632 300.875 84.1922C299.451 83.587 298.138 83.2642 296.624 84.1115C292.351 86.5325 287.923 85.9273 283.561 84.3738C281.18 83.5264 278.932 82.3765 276.595 81.3677C275.749 83.7282 274.971 86.0887 274.014 88.3886C273.279 90.1438 272.3 91.7982 270.074 92.4639C267.604 93.2104 264.132 91.7376 262.107 89.357C256.811 83.1431 254.185 75.9205 252.293 68.4356C251.403 64.8445 250.869 61.1726 250.223 57.5411C250.023 56.4315 250.335 55.3421 251.603 54.8175C253.027 54.2325 254.274 54.7368 255.231 55.6851C257.3 57.7429 259.459 59.7604 261.284 61.9998C264.444 65.8532 267.938 69.404 271.922 72.5715C272.166 72.753 272.478 72.8539 273.257 73.2574C273.613 66.0348 273.969 59.1148 274.347 51.8922C271.877 52.5579 269.963 53.2035 268.005 53.5667C263.687 54.3939 259.281 54.414 255.097 53.1834C251.892 52.2351 248.955 50.5404 245.861 49.2694C243.992 48.5028 242.056 47.8168 240.097 47.2318C238.54 46.7879 238.584 45.759 238.695 44.6695C238.807 43.459 239.964 43.1161 240.876 43.1968C242.278 43.3178 243.725 43.7213 245.038 44.2459C248.354 45.5976 251.536 47.2721 254.919 48.4624C260.972 50.601 266.959 49.2291 272.856 47.5949C273.769 47.3326 274.103 46.6265 274.103 45.6783C274.058 37.8908 274.08 30.0831 274.08 22.2956C274.08 17.5746 275.015 13.0151 276.862 8.61696C277.641 6.76087 278.865 5.08635 281.157 4.66268C282.381 4.44075 283.961 4.44075 284.963 4.98548C286.432 5.79247 287.745 7.04331 288.679 8.35468C290.193 10.4932 291.55 12.7528 292.574 15.0931C293.553 17.3325 294.043 19.7333 294.688 22.0938C296.157 27.3998 294.666 32.3628 292.552 37.2855C290.371 42.3898 286.565 46.1423 281.424 48.8458C279.533 49.8343 278.442 50.9238 278.643 53.0623C278.865 55.3017 278.821 57.5815 278.665 59.8209C278.309 64.8848 277.797 69.9487 277.352 74.9925C277.24 76.2635 277.463 77.2722 278.976 77.8371C281.981 78.9669 284.874 80.3388 287.923 81.3072C289.303 81.7511 290.972 81.5493 292.507 81.509C292.975 81.4888 293.42 81.0651 294.221 80.6414C292.596 79.2695 291.15 78.1196 289.792 76.9091C286.899 74.3065 284.607 71.3206 283.116 67.8505C281.981 65.2076 280.645 62.6454 279.533 60.0025C278.086 56.5728 280.957 53.4053 285.898 54.2123C290.104 54.8781 292.93 57.4201 295.111 60.3858C297.826 64.098 300.185 68.0119 301.253 72.4706C301.721 74.4477 301.876 76.324 301.32 78.3011C301.164 78.8459 301.476 79.9151 301.899 80.0967C305.326 81.6098 308.887 83.0826 312.803 82.0537C314.45 81.6098 315.964 80.6011 317.41 79.673C318.523 78.9669 317.833 78.0389 317.388 77.2117C316.119 74.8512 314.762 72.5311 313.694 70.0899C313.048 68.6172 312.737 66.9628 312.559 65.369C312.336 63.2305 314.161 62.1007 316.097 63.0892C317.833 63.9769 319.324 65.3085 320.86 66.519C321.327 66.9023 321.549 67.5479 321.861 68.0725C322.128 67.9312 322.373 67.79 322.64 67.6488C322.796 66.9427 323.041 66.2164 323.063 65.5102C323.107 62.1814 323.174 58.8525 323.063 55.5035C322.952 52.4974 322.573 49.5115 322.44 46.5256C322.351 44.5283 323.063 43.6608 324.554 43.6608C326 43.6608 326.868 44.7704 327.024 46.566C327.313 49.7536 327.336 53.0018 328.092 56.0886C329.116 60.2648 330.652 64.3401 332.054 68.4356C332.788 70.554 333.678 72.632 334.524 74.7302C335.614 77.474 340.733 78.8862 343.292 77.1108C343.626 76.8889 343.737 76.1222 343.604 75.6986C342.691 72.4706 341.668 69.2628 340.711 66.055C340.555 65.5102 340.266 64.9453 340.355 64.441C340.51 63.6138 340.688 62.3428 341.267 62.1209C342.113 61.7981 343.671 61.8788 344.316 62.4033C346.096 63.8761 347.565 65.6716 349.635 67.326C349.724 64.9453 349.813 62.5647 349.857 60.2042C349.88 59.599 349.724 58.9937 349.657 58.3885C349.123 54.5149 348.567 50.6615 348.099 46.7879C347.943 45.5774 347.921 44.3266 347.988 43.1161C348.055 42.0266 349.435 41.3407 350.347 42.0065C351.126 42.5915 351.86 43.4389 352.15 44.2862C353.329 47.8168 354.108 51.4483 355.421 54.9386C357.023 59.1955 359.071 63.3314 360.762 67.5479C362.164 71.0382 363.388 74.6091 364.768 78.3818C364.991 78.1801 365.636 77.8775 365.836 77.4336C367.505 73.9434 368.173 70.4127 367.839 66.4988C367.461 62.02 368.084 57.4403 368.396 52.9211C368.44 52.2755 369.13 51.3071 369.731 51.1457C370.977 50.8027 372.335 51.0045 373.203 52.1343C373.737 52.9816 374.315 53.8088 374.961 54.7167ZM405.36 55.5438C405.45 55.5438 405.539 55.564 405.628 55.564C405.628 56.4921 405.405 57.4604 405.672 58.3078C406.696 61.8182 407.586 65.3892 409.01 68.7786C410.702 72.7934 412.816 76.6872 416.31 79.7941C417.979 81.287 420.004 81.5291 422.096 81.0449C425.212 80.3388 426.992 76.9696 425.902 73.903C424.9 71.1189 423.81 68.3549 422.697 65.5909C421.94 63.6945 421.339 61.677 420.204 59.9823C417.89 56.5727 415.375 53.2641 412.682 50.1168C411.859 49.1484 410.167 48.3414 408.832 48.3212C407.23 48.2809 406.384 49.7738 406.095 51.186C405.761 52.6185 405.583 54.0912 405.36 55.5438ZM278.62 44.9116C279.154 44.7301 279.444 44.6897 279.666 44.5485C283.561 42.1679 286.654 39.2223 288.479 35.2075C290.393 31.0313 290.794 26.7744 290.015 22.3763C289.347 18.5834 287.789 15.0729 285.541 11.8449C284.763 10.7353 283.65 9.82745 282.693 8.81871C281.892 9.92833 280.913 10.9774 280.312 12.1677C278.732 15.2343 278.754 18.6035 278.665 21.8719C278.487 28.4691 278.62 35.0865 278.62 41.6837C278.62 42.6924 278.62 43.7011 278.62 44.9116ZM254.919 61.9796C255.208 63.2708 255.409 64.7234 255.854 66.0953C257.122 70.0093 258.369 73.9232 259.882 77.7564C261.284 81.287 263.131 84.6764 266.313 87.279C266.87 87.7228 267.649 88.5903 268.027 88.4693C268.761 88.2272 269.585 87.5413 269.852 86.8755C270.675 84.858 271.365 82.7598 271.922 80.6616C272.255 79.4309 272.211 78.2204 270.675 77.3529C269.474 76.667 268.472 75.6582 267.515 74.6898C263.287 70.4531 259.125 66.2164 254.919 61.9796ZM297.047 77.3933C297.871 74.7504 297.181 72.5109 296.046 70.3522C295.022 68.3953 293.954 66.4383 292.641 64.6225C290.794 62.0805 289.147 59.2358 285.497 58.2876C284.117 57.9245 283.494 58.3683 284.006 59.5385C285.141 62.1209 286.387 64.6427 287.7 67.1444C289.703 70.9776 292.885 74.0039 296.179 76.9292C296.313 77.0906 296.535 77.1512 297.047 77.3933ZM350.725 75.7591C350.525 76.788 349.924 77.9582 350.302 78.3818C351.949 80.1976 353.707 82.0133 355.777 83.4054C357.468 84.5554 358.804 83.8089 359.316 82.0133C356.534 79.9958 353.819 78.0187 350.725 75.7591ZM325.266 76.3643C323.619 77.7362 323.53 78.9064 325.266 80.1976C326.601 81.1862 327.959 82.1747 329.428 83.0019C330.028 83.3449 330.919 83.2843 331.675 83.4054C331.787 82.6993 332.143 81.9326 331.92 81.3072C331.675 80.6213 331.008 79.9555 330.34 79.4915C328.782 78.4222 327.091 77.474 325.266 76.3643ZM354.642 64.1182C354.486 64.1383 354.331 64.1585 354.153 64.1787C353.93 66.1357 353.641 68.0725 353.485 70.0294C353.396 70.9575 353.218 71.946 354.308 72.6723C355.265 73.2978 356.066 74.0846 356.979 74.7504C357.558 75.174 358.203 75.4968 358.804 75.86C358.915 75.7591 359.049 75.6582 359.16 75.5573C357.669 71.7443 356.155 67.9312 354.642 64.1182ZM327.158 68.0321C326.134 71.5224 326.445 72.2083 329.25 73.0758C328.582 71.4618 327.937 69.9487 327.158 68.0321ZM320.682 74.8714C321.883 73.439 320.659 71.4013 318.3 70.8969C319.101 72.2688 319.836 73.4995 320.682 74.8714Z" fill="url(#paint0_linear_52_676)"/>
<path d="M213.411 59.5344C212.899 61.3098 210.584 62.9238 207.98 63.8317C205.399 59.1713 201.527 55.9836 195.963 57.0327C195.14 57.1941 194.45 58.0415 194.494 58.788C194.828 64.679 200.102 67.7658 205.532 67.907C206.311 69.7026 206.667 71.5587 206.979 73.6972C207.202 75.2709 207.335 76.8445 207.558 78.398C207.936 80.2541 208.158 82.1505 208.203 84.0268C205.488 88.324 202.817 88.6872 200.236 85.1162C195.607 80.9602 191.846 75.2507 188.819 70.0456C187.706 68.1491 184.702 69.5008 185.147 71.4376C185.481 72.9508 187.061 77.934 186.393 79.0638C184.368 82.4733 182.721 79.5076 181.898 77.591C181.831 77.4296 181.764 77.2682 181.698 77.1068C180.741 72.4464 178.671 67.8263 177.069 65.5264C175.911 63.8519 172.64 64.901 173.397 66.9386C174.621 70.2271 175.8 75.3516 177.959 79.5681C178.026 80.6374 178.07 81.7067 177.892 82.6549C176.446 90.3214 168.167 85.661 164.895 81.4847C164.851 81.404 164.762 81.3032 164.717 81.2427C167.21 76.1182 168.278 70.8727 165.897 65.4659C164.495 62.2782 160.912 59.1309 157.551 62.5607C152.989 67.2211 155.304 75.7753 160.289 82.2514C159.955 82.6549 159.599 82.9979 159.221 83.1794C153.968 85.5601 154.08 73.7174 153.479 70.8324C152.566 66.4141 150.986 64.3361 149.161 60.2607C148.382 58.5459 145 58.5055 145.222 60.7449C145.667 65.4053 147.114 86.468 135.096 78.3576C132.226 76.4208 129.956 73.6165 128.064 70.5701C128.131 69.4605 128.198 68.4114 128.264 67.4632C129.043 55.6608 128.02 43.0313 122.945 32.0158C121.276 28.4045 116.803 19.467 110.839 22.1705C105.765 24.4502 106.811 33.3676 108.102 37.2411C109.771 42.2647 112.686 47.026 114.912 51.868C117.56 57.5976 119.696 63.6299 122.79 69.178C123.101 69.7228 123.48 70.3885 123.902 71.0745C123.658 73.092 123.346 75.1095 122.923 77.127C122.1 81.0611 121.81 84.2891 117.36 86.0241C113.643 87.4767 113.599 87.1741 111.44 84.5513C110.594 83.5426 109.949 82.4733 109.326 81.3637C108.168 79.3059 107.323 77.0866 106.833 74.827C106.455 73.0516 106.299 71.1754 106.366 69.3596C106.433 67.6044 106.789 64.5983 108.391 62.944C110.216 61.8546 112.375 61.6326 115.045 62.9642C117.315 64.094 119.296 61.0072 117.07 59.8169C112.397 57.3152 108.124 57.981 105.387 60.7853C101.425 64.0133 98.8882 69.9245 97.3971 74.4034C96.952 75.7551 95.9728 82.2917 94.6821 82.897C91.7444 84.2689 90.6317 76.441 90.2089 74.3227C89.0961 68.8956 89.8083 62.2782 86.2921 57.5371C85.6912 56.7301 84.5117 56.3468 83.5547 56.8915C80.2611 58.7476 79.7937 62.8028 78.7032 65.8895C77.8576 68.2702 76.6558 70.5096 75.6766 72.8297C75.2315 68.714 75.3873 64.8203 74.0075 60.8256C73.4511 59.1915 70.5803 58.9897 70.1352 60.8256C69.4453 63.6098 58.8076 85.5399 53.4442 82.3926C51.2633 81.1216 49.2603 84.2689 51.419 85.5399C58.7853 89.8372 67.4869 76.4814 71.6708 67.7254C72.8948 74.2218 73.1396 81.6865 73.006 87.5978C72.9615 89.5951 76.6335 90.16 76.9451 88.0819C76.9674 87.9205 76.9896 87.7592 77.0119 87.5978C77.9021 81.6663 78.4584 76.3805 80.9955 70.7113C81.8856 68.7342 82.6201 64.5176 83.9776 61.9352C86.2698 69.7631 84.623 87.1136 93.4803 88.0819C96.1064 88.3644 97.3081 86.4478 98.2428 84.5917C99.4 82.2917 100.557 76.8647 102.404 71.9218C102.76 76.6428 104.452 81.3839 107.122 85.2978C110.216 89.817 115.891 93.8116 121.365 89.6556C125.149 86.7706 126.729 81.4847 127.485 76.32C131.18 81.1014 136.187 85.7215 141.261 84.6119C147.203 83.3005 149.095 77.5506 149.54 71.6999C149.762 72.5069 150.007 73.2937 150.163 74.1613C150.875 77.9945 150.43 83.9663 153.768 86.9521C157.329 90.1398 160.445 87.86 162.603 84.9347C166.565 88.9293 171.55 91.5117 176.179 90.6038C179.65 89.9179 181.364 87.6381 181.965 84.6724C183.256 85.6811 184.702 86.4478 186.505 86.6294C187.172 86.6899 187.929 86.246 188.241 85.7215C189.487 83.6838 190.043 81.6663 190.177 79.6488C193.671 84.7127 198.077 89.7161 203.374 91.6731C208.448 93.5493 211.296 90.7249 212.053 86.1048C212.698 82.1707 212.164 74.1209 209.65 67.443C213.166 66.515 216.192 64.2554 217.283 60.523C217.95 58.2432 214.078 57.2748 213.411 59.5344ZM123.19 60.7248C120.542 54.4907 117.805 48.2768 114.8 42.184C113.02 38.5929 111.173 35.385 111.173 31.3501C111.173 30.5632 111.061 27.9809 111.64 27.5168C113.688 25.8221 116.914 29.4133 117.76 30.4422C122.545 36.2727 123.524 46.5418 124.103 53.4416C124.392 56.7705 124.459 60.1195 124.392 63.4484C124.014 62.5405 123.569 61.5923 123.19 60.7248ZM160.133 66.7772C162.692 63.6703 163.404 71.2157 163.315 72.8902C163.249 73.9797 162.915 75.8761 162.381 77.7524C160.155 74.0604 158.086 69.2587 160.133 66.7772ZM199.257 61.5923C198.834 60.2607 201.638 62.8431 203.218 64.4369C201.393 64.215 199.835 63.408 199.257 61.5923Z" fill="url(#paint1_linear_52_676)"/>
<path d="M52.1085 81.8026C50.6397 81.3789 50.4617 80.8544 51.1738 79.5833C51.797 78.4737 52.3756 77.3036 52.8874 76.1536C55.469 70.5248 56.8488 64.7346 55.2464 58.6821C54.0892 54.3647 53.2435 49.9666 50.662 46.0526C50.3059 45.5281 50.3282 44.7009 50.4394 44.0553C50.8845 40.9887 51.8637 37.9423 51.797 34.8959C51.6634 29.1259 50.7065 23.4567 48.2807 17.9893C46.0775 13.0263 43.763 8.16411 40.3581 3.76597C37.2424 -0.248837 32.4354 -1.11636 27.851 1.46603C25.2249 2.9388 23.2443 4.97647 21.3081 7.07466C17.3913 11.3114 13.7415 15.6893 10.8039 20.5313C7.82179 25.4137 5.30702 30.4776 3.37087 35.7836C0.522271 43.6518 -0.590459 51.6612 0.299727 59.9531C0.789329 64.4118 1.45697 68.8099 3.43763 72.9256C4.37233 74.8826 5.15124 76.9606 6.55328 78.6351C8.24463 80.6728 10.3811 82.4684 12.562 84.1227C14.3869 85.5148 16.4343 86.806 18.593 87.6735C23.2443 89.5497 28.0958 90.5383 33.3034 90.3568C38.3107 90.1954 42.3165 88.0972 46.122 85.6358C47.5908 84.6876 48.4588 84.3648 50.0611 85.1516C52.5314 86.3419 54.8459 86.463 57.0046 85.777V81.3386C55.5357 82.1052 53.7776 82.2868 52.1085 81.8026ZM33.5037 86.2209C27.851 86.7858 22.6211 85.5955 18.1257 82.9122C13.2074 80.007 9.06805 76.0729 7.39895 70.7266C6.33073 67.2968 5.50731 63.7662 5.01771 60.2154C4.57262 56.9471 4.35007 53.5577 4.70615 50.2893C5.19575 45.7298 5.79662 41.1299 7.77728 36.8125C8.48943 35.2187 8.82325 33.4836 9.71344 31.9705C12.6733 26.9066 15.4996 21.762 18.9269 16.9604C21.5307 13.3289 24.8911 10.1211 28.0735 6.83256C29.0082 5.86417 30.3435 5.15804 31.6343 4.59314C33.6594 3.70545 35.5288 4.35104 36.8418 6.08609C41.5598 12.3 44.7868 19.1393 46.5226 26.4628C47.6131 31.1433 47.7689 35.9248 46.7229 40.7063C46.4781 41.7755 46.2111 41.8966 45.0761 41.5738C43.1177 41.0291 41.0925 40.4843 39.0673 40.3431C34.1713 40.0203 32.2796 42.522 31.6788 46.2947C30.8553 51.3586 32.4799 56.1401 33.5482 60.9821C33.7262 61.8092 34.1936 62.5961 34.3271 63.4434C34.4161 63.9881 34.3493 64.7548 33.9933 65.1381C30.2767 69.1731 24.1567 70.8072 18.6153 69.1731C17.9477 68.9713 17.4135 68.3459 16.8349 67.8819C16.0338 67.2363 15.5442 66.0258 14.0976 66.6109C12.9626 67.0547 12.562 68.6889 12.8736 69.8792C13.3855 71.8362 14.7652 72.6028 16.7904 73.1274C22.955 74.7817 28.6299 74.237 33.9042 70.7669C34.5496 70.3432 35.3508 70.1011 35.9294 69.8389C38.5777 73.773 41.226 77.6869 43.9633 81.7421C41.315 84.4052 37.7765 85.7972 33.5037 86.2209ZM44.1636 48.9578C42.4723 52.5086 40.4916 55.9585 38.6445 59.4488C38.3774 59.4286 38.1326 59.4084 37.8656 59.3882C37.6208 58.6014 37.2647 57.8348 37.1312 57.0278C36.6638 54.2436 36.2855 51.4393 35.8849 48.635C35.8626 48.4333 35.8626 48.2315 35.8849 48.0298C36.3968 44.5597 38.0658 43.2281 41.9604 44.7009C45.3654 45.9719 45.5212 46.1131 44.1636 48.9578ZM46.8342 78.2518C45.4544 76.2948 44.0078 74.4589 42.8061 72.5019C41.7824 70.8274 41.0925 69.0117 40.18 67.2766C39.4679 65.9451 40.2468 64.896 40.8477 63.8066C43.0509 59.7716 45.2764 55.7568 47.5018 51.7218C47.6353 51.4998 47.7911 51.2779 48.1249 50.7937C52.3311 60.2356 52.6872 69.2538 46.8342 78.2518Z" fill="url(#paint2_linear_52_676)"/>
<defs>
<linearGradient id="paint0_linear_52_676" x1="367.629" y1="4.52344" x2="367.629" y2="131.506" gradientUnits="userSpaceOnUse">
<stop stop-color="#86D165"/>
<stop offset="1" stop-color="#A8F785"/>
</linearGradient>
<linearGradient id="paint1_linear_52_676" x1="133.926" y1="21.6689" x2="133.926" y2="123.375" gradientUnits="userSpaceOnUse">
<stop stop-color="#86D165"/>
<stop offset="1" stop-color="#A8F785"/>
</linearGradient>
<linearGradient id="paint2_linear_52_676" x1="28.5023" y1="0" x2="28.5023" y2="130.214" gradientUnits="userSpaceOnUse">
<stop stop-color="#86D165"/>
<stop offset="1" stop-color="#A8F785"/>
</linearGradient>
</defs>
</svg>
